<mxfile host="app.diagrams.net" modified="2021-10-20T08:09:55.156Z" agent="5.0 (Windows)" etag="5oUlUh8NKz4SwGj1ItcS" version="15.3.7" type="github">
  <diagram name="Page-1" id="5f0bae14-7c28-e335-631c-24af17079c00">
    <mxGraphModel dx="1498" dy="763" grid="1" gridSize="10" guides="1" tooltips="1" connect="1" arrows="1" fold="1" page="1" pageScale="1" pageWidth="1100" pageHeight="850" background="none" math="0" shadow="0">
      <root>
        <mxCell id="0" />
        <mxCell id="1" parent="0" />
        <mxCell id="39150e848f15840c-3" value="" style="verticalAlign=top;align=left;spacingTop=8;spacingLeft=2;spacingRight=12;shape=cube;size=10;direction=south;fontStyle=4;html=1;rounded=0;shadow=0;comic=0;labelBackgroundColor=none;strokeWidth=3;fontFamily=Verdana;fontSize=12;fillColor=#fff2cc;strokeColor=#d6b656;" parent="1" vertex="1">
          <mxGeometry x="430" y="410" width="260" height="150" as="geometry" />
        </mxCell>
        <mxCell id="39150e848f15840c-10" value="&lt;font size=&quot;1&quot;&gt;&lt;b style=&quot;font-size: 15px&quot;&gt;Online Shopping server&lt;/b&gt;&lt;/font&gt;" style="shape=component;align=left;spacingLeft=36;rounded=0;shadow=0;comic=0;labelBackgroundColor=none;strokeWidth=3;fontFamily=Verdana;fontSize=12;html=1;fillColor=#ffe6cc;strokeColor=#d79b00;" parent="1" vertex="1">
          <mxGeometry x="440" y="460" width="240" height="60" as="geometry" />
        </mxCell>
        <mxCell id="QaAquOLvKBYqYX-TV_Am-1" value="" style="shape=folder;fontStyle=1;spacingTop=10;tabWidth=40;tabHeight=14;tabPosition=left;html=1;fillColor=#fff2cc;strokeColor=#d6b656;strokeWidth=3;" vertex="1" parent="1">
          <mxGeometry x="90" y="170" width="170" height="140" as="geometry" />
        </mxCell>
        <mxCell id="QaAquOLvKBYqYX-TV_Am-2" value="product " style="shape=module;align=left;spacingLeft=20;align=center;verticalAlign=top;fillColor=#ffe6cc;strokeColor=#d79b00;fontSize=13;fontStyle=1;strokeWidth=3;" vertex="1" parent="1">
          <mxGeometry x="130" y="230" width="110" height="70" as="geometry" />
        </mxCell>
        <mxCell id="QaAquOLvKBYqYX-TV_Am-22" style="edgeStyle=none;rounded=0;orthogonalLoop=1;jettySize=auto;html=1;exitX=0;exitY=0;exitDx=0;exitDy=74.5;exitPerimeter=0;entryX=0.533;entryY=0;entryDx=0;entryDy=0;entryPerimeter=0;fontSize=13;" edge="1" parent="1" source="QaAquOLvKBYqYX-TV_Am-3" target="39150e848f15840c-3">
          <mxGeometry relative="1" as="geometry" />
        </mxCell>
        <mxCell id="QaAquOLvKBYqYX-TV_Am-3" value="&lt;font style=&quot;font-size: 15px&quot;&gt;user interface&lt;/font&gt;" style="shape=folder;fontStyle=1;spacingTop=10;tabWidth=40;tabHeight=14;tabPosition=left;html=1;fontSize=13;fillColor=#fff2cc;strokeColor=#d6b656;strokeWidth=4;" vertex="1" parent="1">
          <mxGeometry x="820" y="422.5" width="190" height="135" as="geometry" />
        </mxCell>
        <mxCell id="QaAquOLvKBYqYX-TV_Am-4" value="" style="shape=folder;fontStyle=1;spacingTop=10;tabWidth=40;tabHeight=14;tabPosition=left;html=1;fillColor=#fff2cc;strokeColor=#d6b656;strokeWidth=3;" vertex="1" parent="1">
          <mxGeometry x="760" y="610" width="170" height="140" as="geometry" />
        </mxCell>
        <mxCell id="QaAquOLvKBYqYX-TV_Am-5" value="Operation details" style="shape=folder;fontStyle=1;spacingTop=10;tabWidth=40;tabHeight=14;tabPosition=left;html=1;fontSize=13;fillColor=#fff2cc;strokeColor=#d6b656;strokeWidth=4;" vertex="1" parent="1">
          <mxGeometry x="320" y="610" width="190" height="135" as="geometry" />
        </mxCell>
        <mxCell id="QaAquOLvKBYqYX-TV_Am-6" value="Bill Creator&#xa;Data&#xa;processing&#xa;" style="shape=module;align=left;spacingLeft=20;align=center;verticalAlign=top;fillColor=#ffe6cc;strokeColor=#d79b00;fontSize=13;fontStyle=1;strokeWidth=3;" vertex="1" parent="1">
          <mxGeometry x="790" y="670" width="110" height="70" as="geometry" />
        </mxCell>
        <mxCell id="QaAquOLvKBYqYX-TV_Am-7" value="" style="shape=folder;fontStyle=1;spacingTop=10;tabWidth=40;tabHeight=14;tabPosition=left;html=1;fillColor=#fff2cc;strokeColor=#d6b656;strokeWidth=3;" vertex="1" parent="1">
          <mxGeometry x="60" y="400" width="170" height="140" as="geometry" />
        </mxCell>
        <mxCell id="QaAquOLvKBYqYX-TV_Am-8" value="order" style="shape=module;align=left;spacingLeft=20;align=center;verticalAlign=top;fillColor=#ffe6cc;strokeColor=#d79b00;fontSize=13;fontStyle=1;strokeWidth=3;" vertex="1" parent="1">
          <mxGeometry x="100" y="450" width="110" height="70" as="geometry" />
        </mxCell>
        <mxCell id="QaAquOLvKBYqYX-TV_Am-9" value="" style="shape=folder;fontStyle=1;spacingTop=10;tabWidth=40;tabHeight=14;tabPosition=left;html=1;fillColor=#fff2cc;strokeColor=#d6b656;strokeWidth=3;" vertex="1" parent="1">
          <mxGeometry x="720" y="170" width="170" height="140" as="geometry" />
        </mxCell>
        <mxCell id="QaAquOLvKBYqYX-TV_Am-10" value="Customer" style="shape=module;align=left;spacingLeft=20;align=center;verticalAlign=top;fillColor=#ffe6cc;strokeColor=#d79b00;fontSize=13;fontStyle=1;strokeWidth=3;" vertex="1" parent="1">
          <mxGeometry x="770" y="220" width="110" height="70" as="geometry" />
        </mxCell>
        <mxCell id="QaAquOLvKBYqYX-TV_Am-11" value="Customer Database" style="text;html=1;strokeColor=none;fillColor=none;align=center;verticalAlign=middle;whiteSpace=wrap;rounded=0;fontSize=13;" vertex="1" parent="1">
          <mxGeometry x="710" y="200" width="165" height="20" as="geometry" />
        </mxCell>
        <mxCell id="QaAquOLvKBYqYX-TV_Am-12" value="Product Database" style="text;html=1;strokeColor=none;fillColor=none;align=center;verticalAlign=middle;whiteSpace=wrap;rounded=0;fontSize=13;" vertex="1" parent="1">
          <mxGeometry x="102.5" y="200" width="165" height="20" as="geometry" />
        </mxCell>
        <mxCell id="QaAquOLvKBYqYX-TV_Am-13" value="Utility" style="text;html=1;strokeColor=none;fillColor=none;align=center;verticalAlign=middle;whiteSpace=wrap;rounded=0;fontSize=13;" vertex="1" parent="1">
          <mxGeometry x="735" y="640" width="165" height="20" as="geometry" />
        </mxCell>
        <mxCell id="QaAquOLvKBYqYX-TV_Am-14" value="order database" style="text;html=1;strokeColor=none;fillColor=none;align=center;verticalAlign=middle;whiteSpace=wrap;rounded=0;fontSize=13;" vertex="1" parent="1">
          <mxGeometry x="45" y="422.5" width="165" height="20" as="geometry" />
        </mxCell>
        <mxCell id="QaAquOLvKBYqYX-TV_Am-16" value="" style="endArrow=block;dashed=1;endFill=0;endSize=12;html=1;fontSize=13;exitX=0;exitY=0;exitDx=0;exitDy=125;exitPerimeter=0;entryX=1.018;entryY=0.686;entryDx=0;entryDy=0;entryPerimeter=0;" edge="1" parent="1" source="39150e848f15840c-3" target="QaAquOLvKBYqYX-TV_Am-1">
          <mxGeometry width="160" relative="1" as="geometry">
            <mxPoint x="320" y="340" as="sourcePoint" />
            <mxPoint x="480" y="340" as="targetPoint" />
          </mxGeometry>
        </mxCell>
        <mxCell id="QaAquOLvKBYqYX-TV_Am-17" value="" style="endArrow=block;dashed=1;endFill=0;endSize=12;html=1;fontSize=13;entryX=0;entryY=0;entryDx=170;entryDy=77;entryPerimeter=0;" edge="1" parent="1" target="QaAquOLvKBYqYX-TV_Am-7">
          <mxGeometry width="160" relative="1" as="geometry">
            <mxPoint x="430" y="500" as="sourcePoint" />
            <mxPoint x="219.99999999999994" y="376.03999999999996" as="targetPoint" />
            <Array as="points" />
          </mxGeometry>
        </mxCell>
        <mxCell id="QaAquOLvKBYqYX-TV_Am-18" value="" style="endArrow=block;dashed=1;endFill=0;endSize=12;html=1;fontSize=13;exitX=0.647;exitY=0.104;exitDx=0;exitDy=0;exitPerimeter=0;" edge="1" parent="1" source="QaAquOLvKBYqYX-TV_Am-5" target="39150e848f15840c-3">
          <mxGeometry width="160" relative="1" as="geometry">
            <mxPoint x="440" y="610" as="sourcePoint" />
            <mxPoint x="240" y="587" as="targetPoint" />
            <Array as="points" />
          </mxGeometry>
        </mxCell>
        <mxCell id="QaAquOLvKBYqYX-TV_Am-19" value="" style="endArrow=block;dashed=1;endFill=0;endSize=12;html=1;fontSize=13;" edge="1" parent="1" source="39150e848f15840c-3">
          <mxGeometry width="160" relative="1" as="geometry">
            <mxPoint x="706.08" y="682.02" as="sourcePoint" />
            <mxPoint x="870" y="630" as="targetPoint" />
            <Array as="points" />
          </mxGeometry>
        </mxCell>
        <mxCell id="QaAquOLvKBYqYX-TV_Am-21" value="" style="endArrow=block;dashed=1;endFill=0;endSize=12;html=1;fontSize=13;" edge="1" parent="1" source="39150e848f15840c-3" target="QaAquOLvKBYqYX-TV_Am-9">
          <mxGeometry width="160" relative="1" as="geometry">
            <mxPoint x="620" y="409.9964516129032" as="sourcePoint" />
            <mxPoint x="800" y="494.19" as="targetPoint" />
            <Array as="points" />
          </mxGeometry>
        </mxCell>
        <mxCell id="QaAquOLvKBYqYX-TV_Am-23" value="&amp;lt;&amp;lt;uses&amp;gt;&amp;gt;" style="text;html=1;align=center;verticalAlign=middle;resizable=0;points=[];autosize=1;strokeColor=none;fillColor=none;fontSize=13;" vertex="1" parent="1">
          <mxGeometry x="340" y="300" width="80" height="20" as="geometry" />
        </mxCell>
        <mxCell id="QaAquOLvKBYqYX-TV_Am-24" value="&amp;lt;&amp;lt;uses&amp;gt;&amp;gt;" style="text;html=1;align=center;verticalAlign=middle;resizable=0;points=[];autosize=1;strokeColor=none;fillColor=none;fontSize=13;" vertex="1" parent="1">
          <mxGeometry x="290" y="450" width="80" height="20" as="geometry" />
        </mxCell>
        <mxCell id="QaAquOLvKBYqYX-TV_Am-25" value="&amp;lt;&amp;lt;uses&amp;gt;&amp;gt;" style="text;html=1;align=center;verticalAlign=middle;resizable=0;points=[];autosize=1;strokeColor=none;fillColor=none;fontSize=13;" vertex="1" parent="1">
          <mxGeometry x="450" y="590" width="80" height="20" as="geometry" />
        </mxCell>
        <mxCell id="QaAquOLvKBYqYX-TV_Am-26" value="&amp;lt;&amp;lt;resides&amp;gt;&amp;gt;" style="text;html=1;align=center;verticalAlign=middle;resizable=0;points=[];autosize=1;strokeColor=none;fillColor=none;fontSize=13;" vertex="1" parent="1">
          <mxGeometry x="775" y="580" width="90" height="20" as="geometry" />
        </mxCell>
        <mxCell id="QaAquOLvKBYqYX-TV_Am-27" value="&amp;lt;&amp;lt;uses&amp;gt;&amp;gt;" style="text;html=1;align=center;verticalAlign=middle;resizable=0;points=[];autosize=1;strokeColor=none;fillColor=none;fontSize=13;" vertex="1" parent="1">
          <mxGeometry x="710" y="460" width="80" height="20" as="geometry" />
        </mxCell>
        <mxCell id="QaAquOLvKBYqYX-TV_Am-28" value="&amp;lt;&amp;lt;uses&amp;gt;&amp;gt;" style="text;html=1;align=center;verticalAlign=middle;resizable=0;points=[];autosize=1;strokeColor=none;fillColor=none;fontSize=13;" vertex="1" parent="1">
          <mxGeometry x="630" y="340" width="80" height="20" as="geometry" />
        </mxCell>
      </root>
    </mxGraphModel>
  </diagram>
</mxfile>
